# xmcd CD database file
#
# Track frame offsets:
#	150
#	17241
#	32127
#	46466
#	62454
#	81965
#	102180
#	115705
#	129248
#	148418
#	162401
#	178050
#	192595
#
# Disc length: 2820 seconds
#
# Revision: 2
# Processed by: cddbd v1.5.2PL0 Copyright (c) Steve Scherf et al.
# Submitted via: CDex 1.70beta2
#
DISCID=b60b020d
DTITLE=Santiano - Mit den Gezeiten
DYEAR=2013
DGENRE=Shanty
TTITLE0=Gott muss ein Seemann sein
TTITLE1=Drums And Guns Johnny I Hardly Knew Ya
TTITLE2=Salz auf unserer Haut
TTITLE3=Seemann
TTITLE4=Bis in alle Ewigkeit (Walhalla)
TTITLE5=Wir sind uns treu
TTITLE6=Have A Drink On Me
TTITLE7=Sieben Jahre
TTITLE8=Gestrandet
TTITLE9=Rolling Home
TTITLE10=Marie
TTITLE11=Great Song Of Indifference
TTITLE12=Hoch im Norden
EXTD=YEAR: 2013
EXTT0=
EXTT1=
EXTT2=
EXTT3=
EXTT4=
EXTT5=
EXTT6=
EXTT7=
EXTT8=
EXTT9=
EXTT10=
EXTT11=
EXTT12=
PLAYORDER=
